# xmcd
#
# Track frame offsets:
#	150
#	18395
#	31796
#	48735
#	65554
#	75668
#	118053
#	142872
#	158777
#	186425
#	200424
#	220491
#	239680
#	254887
#	260632
#	273893
#
# Disc length: 3917 seconds
#
# Revision: 0
# Processed by: cddbd v1.4PL0 Copyright (c) Steve Scherf et al.
# Submitted via: EasyCDDAExtractor 5.0.5.1
#
DISCID=f50f4b10
DTITLE=Various Artist - The Best Of The Kamp Koncert Series, Volume 4 (Disk O
DTITLE=ne)
DYEAR=2002
DGENRE=Bluegrass
TTITLE0=Various Artist - Blackberry Rag
TTITLE1=Steve Kaufman - Slow Creek
TTITLE2=Various Artist - Little Willie Wilson
TTITLE3=Various Artist - Temptation Rag
TTITLE4=Various Artist - Oh, Mio Babbino Caro
TTITLE5=Various Artist - John Gershwin Medley
TTITLE6=Various Artist - Frosty Morn
TTITLE7=Various Artist - When I Come Home
TTITLE8=Various Artist - Pent Up House
TTITLE9=Various Artist - Kentucky Waltz
TTITLE10=Various Artist - Sweet Sue
TTITLE11=Various Artist - Beaumont Rag
TTITLE12=Various Artist - Psalm of Life
TTITLE13=Various Artist - Whispering
TTITLE14=Various Artist - Mazulka #6
TTITLE15=Various Artist - Sunny Side Of Live
EXTD=
EXTT0=
EXTT1=
EXTT2=
EXTT3=
EXTT4=
EXTT5=
EXTT6=
EXTT7=
EXTT8=
EXTT9=
EXTT10=
EXTT11=
EXTT12=
EXTT13=
EXTT14=
EXTT15=
PLAYORDER=
